G75*
%MOIN*%
%OFA0B0*%
%FSLAX25Y25*%
%IPPOS*%
%LPD*%
%AMOC8*
5,1,8,0,0,1.08239X$1,22.5*
%
%ADD10C,0.07400*%
%ADD11R,0.07087X0.06299*%
%ADD12R,0.06299X0.07087*%
%ADD13OC8,0.07400*%
%ADD14OC8,0.06600*%
%ADD15C,0.06000*%
%ADD16R,0.07600X0.21000*%
%ADD17R,0.06299X0.07874*%
%ADD18OC8,0.04800*%
%ADD19R,0.07874X0.06299*%
%ADD20R,0.05000X0.02500*%
%ADD21R,0.05315X0.05315*%
%ADD22R,0.05000X0.02200*%
%ADD23R,0.02200X0.05000*%
D10*
X0136027Y0055225D03*
X0136027Y0085225D03*
X0145694Y0097270D03*
X0144974Y0107011D03*
X0142447Y0117077D03*
X0156374Y0107011D03*
X0172447Y0117077D03*
X0175694Y0097270D03*
D11*
X0118481Y0095067D03*
X0118481Y0084044D03*
X0106102Y0049248D03*
X0106102Y0038225D03*
X0043006Y0086369D03*
X0043006Y0097393D03*
X0043083Y0106833D03*
X0043083Y0117856D03*
D12*
X0075610Y0059160D03*
X0086634Y0059160D03*
D13*
X0126160Y0046391D03*
X0136160Y0046391D03*
X0136160Y0036391D03*
X0126160Y0036391D03*
X0126160Y0026391D03*
X0136160Y0026391D03*
D14*
X0092860Y0138249D03*
X0092860Y0148249D03*
X0065373Y0148201D03*
X0065373Y0138201D03*
X0043164Y0137965D03*
X0043164Y0147965D03*
D15*
X0108530Y0137442D02*
X0108530Y0131442D01*
X0118530Y0131442D02*
X0118530Y0137442D01*
X0128530Y0137442D02*
X0128530Y0131442D01*
X0138530Y0131442D02*
X0138530Y0137442D01*
X0148530Y0137442D02*
X0148530Y0131442D01*
X0158530Y0131442D02*
X0158530Y0137442D01*
D16*
X0059463Y0121114D03*
X0059463Y0083114D03*
D17*
X0033228Y0134331D03*
X0022204Y0134331D03*
X0034777Y0156409D03*
X0045801Y0156409D03*
X0064297Y0156528D03*
X0075320Y0156528D03*
X0083923Y0156493D03*
X0094947Y0156493D03*
D18*
X0135832Y0101902D03*
X0135832Y0091902D03*
D19*
X0096200Y0040805D03*
X0096200Y0029782D03*
X0074194Y0029453D03*
X0074194Y0040477D03*
D20*
X0074127Y0020012D03*
X0074127Y0023255D03*
X0096165Y0023503D03*
X0096165Y0020260D03*
D21*
X0166076Y0059091D03*
X0166076Y0069091D03*
X0166076Y0079091D03*
D22*
X0108753Y0082535D03*
X0108753Y0085685D03*
X0108753Y0088834D03*
X0108753Y0091984D03*
X0108753Y0095134D03*
X0108753Y0098283D03*
X0108753Y0101433D03*
X0108753Y0104582D03*
X0074953Y0104582D03*
X0074953Y0101433D03*
X0074953Y0098283D03*
X0074953Y0095134D03*
X0074953Y0091984D03*
X0074953Y0088834D03*
X0074953Y0085685D03*
X0074953Y0082535D03*
D23*
X0080830Y0076659D03*
X0083979Y0076659D03*
X0087129Y0076659D03*
X0090278Y0076659D03*
X0093428Y0076659D03*
X0096578Y0076659D03*
X0099727Y0076659D03*
X0102877Y0076659D03*
X0102877Y0110459D03*
X0099727Y0110459D03*
X0096578Y0110459D03*
X0093428Y0110459D03*
X0090278Y0110459D03*
X0087129Y0110459D03*
X0083979Y0110459D03*
X0080830Y0110459D03*
M02*
