%
M48
M72
T01C0.01378
T02C0.03200
T03C0.03543
T04C0.04000
%
T01
X63214Y35312
X80971Y43994
X89693Y42815
X95702Y48246
X88656Y52614
X98740Y65677
X83779Y66814
X70220Y58821
X38784Y77635
X68401Y89476
X91423Y101433
X98337Y94215
X118720Y78151
X133999Y71578
X119836Y60034
X117835Y49248
X112099Y37884
X110699Y23003
X91035Y20248
X78754Y18368
X149896Y77798
X151126Y39881
X74390Y115493
X87455Y117551
X94393Y120261
X131288Y124210
X52379Y132987
X22243Y148323
T02
X43164Y147965
X43164Y137965
X65373Y138201
X65373Y148201
X92860Y148249
X92860Y138249
X135832Y101902
X135832Y91902
T03
X136027Y85225
X145694Y97270
X142447Y117077
X172447Y117077
X175694Y97270
X166076Y79091
X166076Y69091
X166076Y59091
X136027Y55225
T04
X136160Y46391
X126160Y46391
X126160Y36391
X126160Y26391
X136160Y26391
X136160Y36391
X144974Y107011
X156374Y107011
X158530Y134442
X148530Y134442
X138530Y134442
X128530Y134442
X118530Y134442
X108530Y134442
M30
