G75*
%MOIN*%
%OFA0B0*%
%FSLAX25Y25*%
%IPPOS*%
%LPD*%
%AMOC8*
5,1,8,0,0,1.08239X$1,22.5*
%
%ADD10C,0.00000*%
%ADD11C,0.01500*%
%ADD12C,0.07400*%
%ADD13OC8,0.07400*%
%ADD14R,0.02600X0.08000*%
%ADD15OC8,0.06600*%
%ADD16C,0.06000*%
%ADD17OC8,0.04800*%
%ADD18R,0.07874X0.06299*%
%ADD19R,0.03150X0.06299*%
%ADD20R,0.06299X0.03150*%
%ADD21R,0.05315X0.05315*%
%ADD22C,0.02400*%
%ADD23C,0.02756*%
%ADD24C,0.03200*%
%ADD25C,0.02000*%
D10*
X0002862Y0003087D02*
X0002784Y0165548D01*
X0190038Y0165548D01*
X0190117Y0003087D01*
X0002862Y0003087D01*
D11*
X0116726Y0148199D02*
X0117911Y0148199D01*
X0119095Y0149384D01*
X0119095Y0155305D01*
X0114358Y0155305D02*
X0114358Y0151752D01*
X0115542Y0150568D01*
X0119095Y0150568D01*
X0111176Y0151752D02*
X0109992Y0150568D01*
X0106439Y0150568D01*
X0106439Y0157674D01*
X0106439Y0155305D02*
X0109992Y0155305D01*
X0111176Y0154121D01*
X0111176Y0151752D01*
X0130195Y0152937D02*
X0132564Y0150568D01*
X0134933Y0152937D01*
X0134933Y0157674D01*
X0138114Y0157674D02*
X0139298Y0157674D01*
X0139298Y0150568D01*
X0138114Y0150568D02*
X0140483Y0150568D01*
X0143393Y0151752D02*
X0144577Y0152937D01*
X0148130Y0152937D01*
X0148130Y0154121D02*
X0148130Y0150568D01*
X0144577Y0150568D01*
X0143393Y0151752D01*
X0144577Y0155305D02*
X0146946Y0155305D01*
X0148130Y0154121D01*
X0151312Y0154121D02*
X0151312Y0151752D01*
X0152496Y0150568D01*
X0156049Y0150568D01*
X0156049Y0157674D01*
X0156049Y0155305D02*
X0152496Y0155305D01*
X0151312Y0154121D01*
X0159231Y0155305D02*
X0160415Y0155305D01*
X0160415Y0150568D01*
X0159231Y0150568D02*
X0161599Y0150568D01*
X0164510Y0150568D02*
X0164510Y0155305D01*
X0165694Y0155305D01*
X0166878Y0154121D01*
X0168063Y0155305D01*
X0169247Y0154121D01*
X0169247Y0150568D01*
X0166878Y0150568D02*
X0166878Y0154121D01*
X0172429Y0155305D02*
X0173613Y0155305D01*
X0173613Y0150568D01*
X0172429Y0150568D02*
X0174797Y0150568D01*
X0177708Y0150568D02*
X0177708Y0155305D01*
X0177708Y0152937D02*
X0180076Y0155305D01*
X0181261Y0155305D01*
X0173613Y0157674D02*
X0173613Y0158858D01*
X0160415Y0158858D02*
X0160415Y0157674D01*
X0130195Y0157674D02*
X0130195Y0152937D01*
D12*
X0142447Y0117077D03*
X0144974Y0107011D03*
X0145694Y0097270D03*
X0156374Y0107011D03*
X0172447Y0117077D03*
X0175694Y0097270D03*
X0136027Y0085225D03*
X0136027Y0055225D03*
D13*
X0136160Y0046391D03*
X0126160Y0046391D03*
X0126160Y0036391D03*
X0126160Y0026391D03*
X0136160Y0026391D03*
X0136160Y0036391D03*
D14*
X0103724Y0035179D03*
X0098724Y0035179D03*
X0093724Y0035179D03*
X0088724Y0035179D03*
X0083724Y0035179D03*
X0078724Y0035179D03*
X0073724Y0035179D03*
X0073724Y0059379D03*
X0078724Y0059379D03*
X0083724Y0059379D03*
X0088724Y0059379D03*
X0093724Y0059379D03*
X0098724Y0059379D03*
X0103724Y0059379D03*
D15*
X0092860Y0138249D03*
X0092860Y0148249D03*
X0065373Y0148201D03*
X0065373Y0138201D03*
X0043164Y0137965D03*
X0043164Y0147965D03*
D16*
X0108530Y0137442D02*
X0108530Y0131442D01*
X0118530Y0131442D02*
X0118530Y0137442D01*
X0128530Y0137442D02*
X0128530Y0131442D01*
X0138530Y0131442D02*
X0138530Y0137442D01*
X0148530Y0137442D02*
X0148530Y0131442D01*
X0158530Y0131442D02*
X0158530Y0137442D01*
D17*
X0135832Y0101902D03*
X0135832Y0091902D03*
D18*
X0126990Y0071057D03*
X0126990Y0060034D03*
X0112638Y0060063D03*
X0112638Y0071087D03*
X0062663Y0063338D03*
X0062663Y0052315D03*
D19*
X0061926Y0074754D03*
X0066650Y0074754D03*
X0071374Y0074754D03*
X0076099Y0074754D03*
X0080823Y0074754D03*
X0085548Y0074754D03*
X0090272Y0074754D03*
X0094996Y0074754D03*
X0057201Y0074754D03*
X0052477Y0074754D03*
X0047752Y0074754D03*
X0043028Y0074754D03*
X0043028Y0126723D03*
X0047752Y0126723D03*
X0052477Y0126723D03*
X0057201Y0126723D03*
X0061926Y0126723D03*
X0066650Y0126723D03*
X0071374Y0126723D03*
X0076099Y0126723D03*
X0080823Y0126723D03*
X0085548Y0126723D03*
X0090272Y0126723D03*
X0094996Y0126723D03*
D20*
X0106020Y0116968D03*
X0106020Y0112943D03*
X0106020Y0108219D03*
X0106020Y0103494D03*
X0106020Y0097983D03*
X0106020Y0093258D03*
X0106020Y0088534D03*
X0106020Y0084509D03*
D21*
X0166076Y0079091D03*
X0166076Y0069091D03*
X0166076Y0059091D03*
D22*
X0151608Y0059091D01*
X0146860Y0063839D01*
X0130795Y0063839D01*
X0126990Y0060034D01*
X0119836Y0060034D01*
X0112668Y0060034D02*
X0112638Y0060063D01*
X0112099Y0060096D02*
X0112099Y0037884D01*
X0109394Y0035179D01*
X0103724Y0035179D01*
X0088656Y0052614D02*
X0088693Y0059348D01*
X0088724Y0059379D01*
X0093724Y0059379D02*
X0093724Y0067402D01*
X0095023Y0068701D01*
X0095023Y0074727D01*
X0094996Y0074754D01*
X0094996Y0082029D01*
X0101752Y0088784D01*
X0105770Y0088784D01*
X0105800Y0088782D01*
X0105830Y0088777D01*
X0105859Y0088768D01*
X0105886Y0088755D01*
X0105912Y0088740D01*
X0105936Y0088721D01*
X0105957Y0088700D01*
X0105976Y0088676D01*
X0105991Y0088650D01*
X0106004Y0088623D01*
X0106013Y0088594D01*
X0106018Y0088564D01*
X0106020Y0088534D01*
X0113991Y0088534D01*
X0118705Y0083820D01*
X0118720Y0078151D01*
X0112638Y0071087D02*
X0104172Y0071109D01*
X0098740Y0065677D01*
X0098740Y0059395D01*
X0098724Y0059379D01*
X0083779Y0059434D02*
X0083724Y0059379D01*
X0083724Y0035179D02*
X0083656Y0035111D01*
X0094393Y0120261D02*
X0094996Y0120864D01*
X0094996Y0126723D01*
X0090309Y0126723D02*
X0090272Y0126723D01*
X0066650Y0126723D02*
X0066650Y0135055D01*
X0066650Y0136924D01*
X0065373Y0138201D01*
X0057201Y0134263D02*
X0054247Y0137217D01*
X0047552Y0137217D01*
X0043912Y0137217D01*
X0043164Y0137965D01*
X0045717Y0137217D02*
X0047552Y0137217D01*
X0052477Y0131950D02*
X0052477Y0126723D01*
X0057201Y0126723D02*
X0057201Y0134263D01*
X0131288Y0124210D02*
X0142770Y0124210D01*
X0148530Y0129970D01*
X0148530Y0134442D01*
D23*
X0131288Y0124210D03*
X0098337Y0094215D03*
X0091423Y0101433D03*
X0087455Y0117551D03*
X0094393Y0120261D03*
X0074390Y0115493D03*
X0052379Y0132987D03*
X0022243Y0148323D03*
X0068401Y0089476D03*
X0083779Y0066814D03*
X0070220Y0058821D03*
X0080971Y0043994D03*
X0089693Y0042815D03*
X0095702Y0048246D03*
X0088656Y0052614D03*
X0098740Y0065677D03*
X0118720Y0078151D03*
X0133999Y0071578D03*
X0119836Y0060034D03*
X0117835Y0049248D03*
X0112099Y0037884D03*
X0110699Y0023003D03*
X0091035Y0020248D03*
X0078754Y0018368D03*
X0063214Y0035312D03*
X0038784Y0077635D03*
X0149896Y0077798D03*
X0151126Y0039881D03*
D24*
X0151126Y0039881D01*
X0151126Y0043646D01*
X0151497Y0043646D01*
X0152224Y0043501D01*
X0152909Y0043218D01*
X0153526Y0042805D01*
X0154051Y0042281D01*
X0154463Y0041664D01*
X0154746Y0040979D01*
X0154891Y0040252D01*
X0154891Y0039881D01*
X0151126Y0039881D01*
X0151126Y0039881D01*
X0151126Y0043646D01*
X0150755Y0043646D01*
X0150028Y0043501D01*
X0149342Y0043218D01*
X0148726Y0042805D01*
X0148201Y0042281D01*
X0147789Y0041664D01*
X0147505Y0040979D01*
X0147360Y0040252D01*
X0147360Y0039881D01*
X0151126Y0039881D01*
X0154891Y0039881D01*
X0154891Y0039510D01*
X0154746Y0038782D01*
X0154463Y0038097D01*
X0154051Y0037480D01*
X0153526Y0036956D01*
X0152909Y0036544D01*
X0152224Y0036260D01*
X0151497Y0036115D01*
X0151126Y0036115D01*
X0151126Y0039881D01*
X0151126Y0039881D01*
X0151126Y0039881D01*
X0147360Y0039881D01*
X0147360Y0039510D01*
X0147505Y0038782D01*
X0147789Y0038097D01*
X0148201Y0037480D01*
X0148726Y0036956D01*
X0149342Y0036544D01*
X0150028Y0036260D01*
X0150755Y0036115D01*
X0151126Y0036115D01*
X0151126Y0039881D01*
X0151126Y0041412D02*
X0151126Y0041412D01*
X0151126Y0038214D02*
X0151126Y0038214D01*
X0154511Y0038214D02*
X0157048Y0038214D01*
X0154567Y0041412D02*
X0160569Y0041412D01*
X0164090Y0044611D02*
X0143060Y0044611D01*
X0143060Y0043533D02*
X0143060Y0049249D01*
X0141434Y0050875D01*
X0141876Y0051317D01*
X0142927Y0053853D01*
X0142927Y0056598D01*
X0141876Y0059134D01*
X0141571Y0059439D01*
X0145038Y0059439D01*
X0147878Y0056599D01*
X0149115Y0055361D01*
X0150733Y0054691D01*
X0160676Y0054691D01*
X0160705Y0054621D01*
X0161606Y0053721D01*
X0162782Y0053234D01*
X0169370Y0053234D01*
X0170546Y0053721D01*
X0171446Y0054621D01*
X0171933Y0055797D01*
X0171933Y0062385D01*
X0171446Y0063562D01*
X0170546Y0064462D01*
X0170257Y0064581D01*
X0170588Y0064912D01*
X0170849Y0065303D01*
X0171029Y0065738D01*
X0171121Y0066199D01*
X0171121Y0069091D01*
X0166076Y0069091D01*
X0166076Y0069092D01*
X0171121Y0069092D01*
X0171121Y0071984D01*
X0171029Y0072445D01*
X0170849Y0072880D01*
X0170588Y0073271D01*
X0170257Y0073601D01*
X0170546Y0073721D01*
X0171446Y0074621D01*
X0171933Y0075797D01*
X0171933Y0082385D01*
X0171446Y0083562D01*
X0170546Y0084462D01*
X0169929Y0084717D01*
X0175582Y0090370D01*
X0177066Y0090370D01*
X0179602Y0091420D01*
X0181543Y0093361D01*
X0182594Y0095897D01*
X0182594Y0098642D01*
X0181543Y0101178D01*
X0179602Y0103119D01*
X0177066Y0104170D01*
X0174321Y0104170D01*
X0171785Y0103119D01*
X0169844Y0101178D01*
X0168794Y0098642D01*
X0168794Y0097158D01*
X0161661Y0090025D01*
X0141432Y0090025D01*
X0141432Y0091773D01*
X0141785Y0091420D01*
X0144321Y0090370D01*
X0147066Y0090370D01*
X0149602Y0091420D01*
X0151543Y0093361D01*
X0152594Y0095897D01*
X0152594Y0098642D01*
X0151543Y0101178D01*
X0150222Y0102500D01*
X0150824Y0103102D01*
X0151142Y0103871D01*
X0151168Y0103820D01*
X0151731Y0103045D01*
X0152409Y0102367D01*
X0153184Y0101804D01*
X0154038Y0101369D01*
X0154949Y0101073D01*
X0155895Y0100923D01*
X0156374Y0100923D01*
X0156374Y0107010D01*
X0156374Y0107010D01*
X0156374Y0100923D01*
X0156853Y0100923D01*
X0157800Y0101073D01*
X0158711Y0101369D01*
X0159565Y0101804D01*
X0160340Y0102367D01*
X0161018Y0103045D01*
X0161581Y0103820D01*
X0162016Y0104674D01*
X0162312Y0105585D01*
X0162462Y0106531D01*
X0162462Y0107011D01*
X0162462Y0107490D01*
X0162312Y0108436D01*
X0162016Y0109347D01*
X0161581Y0110201D01*
X0161018Y0110976D01*
X0160340Y0111654D01*
X0159565Y0112217D01*
X0158711Y0112652D01*
X0157800Y0112948D01*
X0156853Y0113098D01*
X0156374Y0113098D01*
X0155895Y0113098D01*
X0154949Y0112948D01*
X0154038Y0112652D01*
X0153184Y0112217D01*
X0152409Y0111654D01*
X0151731Y0110976D01*
X0151168Y0110201D01*
X0151142Y0110151D01*
X0150824Y0110919D01*
X0148883Y0112860D01*
X0148250Y0113122D01*
X0148296Y0113168D01*
X0149347Y0115704D01*
X0149347Y0118449D01*
X0148296Y0120985D01*
X0147032Y0122250D01*
X0150210Y0125428D01*
X0152042Y0126186D01*
X0153786Y0127930D01*
X0154017Y0128488D01*
X0154420Y0127933D01*
X0155020Y0127333D01*
X0155706Y0126835D01*
X0156462Y0126450D01*
X0157268Y0126188D01*
X0158106Y0126055D01*
X0158530Y0126055D01*
X0158954Y0126055D01*
X0159791Y0126188D01*
X0160598Y0126450D01*
X0161353Y0126835D01*
X0162039Y0127333D01*
X0162639Y0127933D01*
X0163137Y0128619D01*
X0163522Y0129374D01*
X0163784Y0130181D01*
X0163917Y0131018D01*
X0163917Y0134442D01*
X0158530Y0134442D01*
X0158530Y0126055D01*
X0158530Y0134442D01*
X0158530Y0134442D01*
X0158530Y0134442D01*
X0163917Y0134442D01*
X0163917Y0137866D01*
X0163784Y0138704D01*
X0163522Y0139510D01*
X0163137Y0140266D01*
X0162639Y0140952D01*
X0162039Y0141552D01*
X0161353Y0142050D01*
X0160598Y0142435D01*
X0159791Y0142697D01*
X0158954Y0142830D01*
X0158530Y0142830D01*
X0158530Y0134443D01*
X0158530Y0134443D01*
X0158530Y0142830D01*
X0158106Y0142830D01*
X0157268Y0142697D01*
X0156462Y0142435D01*
X0155706Y0142050D01*
X0155020Y0141552D01*
X0154420Y0140952D01*
X0154017Y0140397D01*
X0153786Y0140954D01*
X0152042Y0142699D01*
X0149763Y0143642D01*
X0147296Y0143642D01*
X0145018Y0142699D01*
X0143530Y0141211D01*
X0142042Y0142699D01*
X0139763Y0143642D01*
X0137296Y0143642D01*
X0135018Y0142699D01*
X0133530Y0141211D01*
X0132042Y0142699D01*
X0129763Y0143642D01*
X0127296Y0143642D01*
X0125018Y0142699D01*
X0123530Y0141211D01*
X0122042Y0142699D01*
X0119763Y0143642D01*
X0117296Y0143642D01*
X0115018Y0142699D01*
X0113530Y0141211D01*
X0112042Y0142699D01*
X0109763Y0143642D01*
X0107296Y0143642D01*
X0105018Y0142699D01*
X0103274Y0140954D01*
X0102330Y0138676D01*
X0102330Y0130209D01*
X0103274Y0127930D01*
X0105018Y0126186D01*
X0107296Y0125242D01*
X0109763Y0125242D01*
X0112042Y0126186D01*
X0113530Y0127674D01*
X0115018Y0126186D01*
X0117296Y0125242D01*
X0119763Y0125242D01*
X0122042Y0126186D01*
X0123530Y0127674D01*
X0125018Y0126186D01*
X0126838Y0125432D01*
X0126710Y0125121D01*
X0126710Y0123300D01*
X0127407Y0121617D01*
X0128694Y0120329D01*
X0130377Y0119632D01*
X0132198Y0119632D01*
X0132628Y0119810D01*
X0136111Y0119810D01*
X0135547Y0118449D01*
X0135547Y0116965D01*
X0131763Y0113181D01*
X0131032Y0111417D01*
X0131032Y0105021D01*
X0130232Y0104221D01*
X0130232Y0099582D01*
X0132913Y0096902D01*
X0130232Y0094221D01*
X0130232Y0089582D01*
X0130429Y0089386D01*
X0130177Y0089134D01*
X0129127Y0086598D01*
X0129127Y0083853D01*
X0130177Y0081317D01*
X0132118Y0079376D01*
X0134654Y0078325D01*
X0137399Y0078325D01*
X0139935Y0079376D01*
X0140985Y0080425D01*
X0147198Y0080425D01*
X0146971Y0080198D01*
X0146559Y0079582D01*
X0146276Y0078896D01*
X0146131Y0078169D01*
X0146131Y0077798D01*
X0146131Y0077427D01*
X0146276Y0076700D01*
X0146559Y0076015D01*
X0146971Y0075398D01*
X0147496Y0074873D01*
X0148113Y0074461D01*
X0148798Y0074177D01*
X0149525Y0074033D01*
X0149896Y0074033D01*
X0149896Y0077798D01*
X0146131Y0077798D01*
X0149896Y0077798D01*
X0149896Y0077798D01*
X0149896Y0077798D01*
X0119073Y0077798D01*
X0119073Y0077799D02*
X0119036Y0077801D01*
X0119000Y0077807D01*
X0118964Y0077816D01*
X0118930Y0077829D01*
X0118897Y0077846D01*
X0118866Y0077866D01*
X0118837Y0077889D01*
X0118811Y0077915D01*
X0118788Y0077944D01*
X0118768Y0077975D01*
X0118751Y0078008D01*
X0118738Y0078042D01*
X0118729Y0078078D01*
X0118723Y0078114D01*
X0118721Y0078151D01*
X0118720Y0078151D02*
X0122485Y0078151D01*
X0122485Y0078521D01*
X0122341Y0079249D01*
X0122057Y0079934D01*
X0121645Y0080551D01*
X0121120Y0081075D01*
X0120504Y0081487D01*
X0119818Y0081771D01*
X0119091Y0081916D01*
X0118720Y0081916D01*
X0118349Y0081916D01*
X0117622Y0081771D01*
X0116936Y0081487D01*
X0116320Y0081075D01*
X0115795Y0080551D01*
X0115383Y0079934D01*
X0115099Y0079249D01*
X0114955Y0078521D01*
X0114955Y0078151D01*
X0118720Y0078151D01*
X0118720Y0081916D01*
X0118720Y0078151D01*
X0118720Y0078151D01*
X0118720Y0078150D01*
X0114955Y0078150D01*
X0114955Y0077780D01*
X0115023Y0077437D01*
X0108065Y0077437D01*
X0106888Y0076949D01*
X0105988Y0076049D01*
X0105763Y0075505D01*
X0105053Y0075507D01*
X0105047Y0075509D01*
X0104179Y0075509D01*
X0103308Y0075511D01*
X0103303Y0075509D01*
X0103297Y0075509D01*
X0102495Y0075177D01*
X0101689Y0074846D01*
X0101685Y0074841D01*
X0101680Y0074839D01*
X0101064Y0074224D01*
X0100448Y0073611D01*
X0100446Y0073606D01*
X0098959Y0072118D01*
X0098959Y0074754D01*
X0095047Y0074754D01*
X0095047Y0074754D01*
X0098959Y0074754D01*
X0098959Y0078139D01*
X0098867Y0078600D01*
X0098687Y0079035D01*
X0098426Y0079426D01*
X0098093Y0079758D01*
X0097702Y0080020D01*
X0097268Y0080200D01*
X0096806Y0080291D01*
X0094997Y0080291D01*
X0094997Y0078662D01*
X0094996Y0078662D01*
X0094996Y0080291D01*
X0094422Y0080291D01*
X0094422Y0097958D01*
X0095304Y0098840D01*
X0096001Y0100522D01*
X0096001Y0102343D01*
X0095304Y0104026D01*
X0094017Y0105314D01*
X0092334Y0106011D01*
X0090513Y0106011D01*
X0088830Y0105314D01*
X0087542Y0104026D01*
X0087165Y0103114D01*
X0086662Y0102611D01*
X0086022Y0101067D01*
X0086022Y0081104D01*
X0083336Y0081104D01*
X0083185Y0081041D01*
X0083035Y0081104D01*
X0078612Y0081104D01*
X0078461Y0081041D01*
X0078310Y0081104D01*
X0073888Y0081104D01*
X0073737Y0081041D01*
X0073586Y0081104D01*
X0069163Y0081104D01*
X0069012Y0081041D01*
X0068861Y0081104D01*
X0064439Y0081104D01*
X0064288Y0081041D01*
X0064137Y0081104D01*
X0059714Y0081104D01*
X0059563Y0081041D01*
X0059413Y0081104D01*
X0054990Y0081104D01*
X0054839Y0081041D01*
X0054688Y0081104D01*
X0050265Y0081104D01*
X0050115Y0081041D01*
X0049964Y0081104D01*
X0045541Y0081104D01*
X0044365Y0080617D01*
X0044040Y0080291D01*
X0043028Y0080291D01*
X0043028Y0078662D01*
X0043028Y0080291D01*
X0041453Y0080291D01*
X0041184Y0080560D01*
X0040568Y0080972D01*
X0039883Y0081256D01*
X0039155Y0081401D01*
X0038784Y0081401D01*
X0038413Y0081401D01*
X0037686Y0081256D01*
X0037001Y0080972D01*
X0036384Y0080560D01*
X0035859Y0080035D01*
X0035525Y0079534D01*
X0035628Y0126799D01*
X0006002Y0126839D01*
X0005985Y0162348D01*
X0158518Y0162348D01*
X0158177Y0162207D01*
X0157372Y0161402D01*
X0156835Y0161624D01*
X0155264Y0161624D01*
X0153812Y0161023D01*
X0152701Y0159912D01*
X0152429Y0159255D01*
X0151710Y0159255D01*
X0151126Y0159013D01*
X0150259Y0158654D01*
X0149721Y0158116D01*
X0149184Y0158654D01*
X0147732Y0159255D01*
X0143792Y0159255D01*
X0143047Y0158947D01*
X0142647Y0159912D01*
X0141536Y0161023D01*
X0140084Y0161624D01*
X0137328Y0161624D01*
X0136523Y0161291D01*
X0135718Y0161624D01*
X0134147Y0161624D01*
X0132695Y0161023D01*
X0132564Y0160891D01*
X0132433Y0161023D01*
X0130981Y0161624D01*
X0129409Y0161624D01*
X0127958Y0161023D01*
X0126847Y0159912D01*
X0126245Y0158460D01*
X0126245Y0152151D01*
X0126847Y0150699D01*
X0129215Y0148330D01*
X0130326Y0147219D01*
X0131778Y0146618D01*
X0133350Y0146618D01*
X0134801Y0147219D01*
X0135339Y0147757D01*
X0135876Y0147219D01*
X0137328Y0146618D01*
X0141268Y0146618D01*
X0142530Y0147141D01*
X0143792Y0146618D01*
X0148916Y0146618D01*
X0150313Y0147197D01*
X0151710Y0146618D01*
X0156835Y0146618D01*
X0157640Y0146951D01*
X0158445Y0146618D01*
X0162385Y0146618D01*
X0163055Y0146895D01*
X0163724Y0146618D01*
X0165296Y0146618D01*
X0165694Y0146783D01*
X0166093Y0146618D01*
X0167664Y0146618D01*
X0168063Y0146783D01*
X0168461Y0146618D01*
X0170033Y0146618D01*
X0170838Y0146951D01*
X0171643Y0146618D01*
X0175583Y0146618D01*
X0176252Y0146895D01*
X0176922Y0146618D01*
X0178493Y0146618D01*
X0179945Y0147219D01*
X0181056Y0148330D01*
X0181658Y0149782D01*
X0181658Y0151301D01*
X0181713Y0151355D01*
X0182046Y0151355D01*
X0183498Y0151957D01*
X0184609Y0153068D01*
X0185211Y0154520D01*
X0185211Y0156091D01*
X0184609Y0157543D01*
X0183498Y0158654D01*
X0182046Y0159255D01*
X0179291Y0159255D01*
X0178892Y0159090D01*
X0178493Y0159255D01*
X0177563Y0159255D01*
X0177563Y0159644D01*
X0176962Y0161096D01*
X0175850Y0162207D01*
X0175510Y0162348D01*
X0186840Y0162348D01*
X0186896Y0046638D01*
X0166322Y0046638D01*
X0152302Y0033901D01*
X0151819Y0006287D01*
X0146044Y0006287D01*
X0149395Y0009639D01*
X0150576Y0010820D01*
X0151216Y0012364D01*
X0151216Y0032435D01*
X0150576Y0033979D01*
X0145785Y0038770D01*
X0144604Y0039952D01*
X0143060Y0040591D01*
X0141718Y0040591D01*
X0140918Y0041391D01*
X0143060Y0043533D01*
X0140939Y0041412D02*
X0147685Y0041412D01*
X0147741Y0038214D02*
X0146342Y0038214D01*
X0149540Y0035015D02*
X0153528Y0035015D01*
X0152265Y0031817D02*
X0151216Y0031817D01*
X0151216Y0028618D02*
X0152209Y0028618D01*
X0152153Y0025420D02*
X0151216Y0025420D01*
X0151216Y0022221D02*
X0152097Y0022221D01*
X0152041Y0019023D02*
X0151216Y0019023D01*
X0151216Y0015824D02*
X0151986Y0015824D01*
X0151930Y0012626D02*
X0151216Y0012626D01*
X0151874Y0009427D02*
X0149183Y0009427D01*
X0117827Y0038214D02*
X0116677Y0038214D01*
X0116677Y0038795D02*
X0116677Y0037063D01*
X0118384Y0038770D01*
X0119565Y0039952D01*
X0120244Y0040233D01*
X0121977Y0041966D01*
X0120073Y0043870D01*
X0120073Y0046215D01*
X0119619Y0045911D01*
X0118934Y0045628D01*
X0118206Y0045483D01*
X0117835Y0045483D01*
X0117835Y0049248D01*
X0117835Y0049248D01*
X0117835Y0045483D01*
X0117465Y0045483D01*
X0116737Y0045628D01*
X0116499Y0045726D01*
X0116499Y0039224D01*
X0116677Y0038795D01*
X0116499Y0041412D02*
X0121423Y0041412D01*
X0120073Y0044611D02*
X0116499Y0044611D01*
X0117835Y0047809D02*
X0117835Y0047809D01*
X0117835Y0049248D02*
X0117835Y0053014D01*
X0117465Y0053014D01*
X0116737Y0052869D01*
X0116499Y0052770D01*
X0116499Y0053714D01*
X0117212Y0053714D01*
X0118388Y0054201D01*
X0119288Y0055101D01*
X0119435Y0055456D01*
X0120181Y0055456D01*
X0120340Y0055071D01*
X0121240Y0054171D01*
X0122416Y0053684D01*
X0129196Y0053684D01*
X0130177Y0051317D01*
X0130752Y0050741D01*
X0130586Y0050575D01*
X0128682Y0052479D01*
X0126160Y0052479D01*
X0123639Y0052479D01*
X0121464Y0050304D01*
X0121456Y0050347D01*
X0121172Y0051032D01*
X0120760Y0051648D01*
X0120236Y0052173D01*
X0119619Y0052585D01*
X0118934Y0052869D01*
X0118206Y0053014D01*
X0117835Y0053014D01*
X0117835Y0049248D01*
X0117835Y0049248D01*
X0117835Y0051008D02*
X0117835Y0051008D01*
X0118393Y0054206D02*
X0121205Y0054206D01*
X0121182Y0051008D02*
X0122168Y0051008D01*
X0126160Y0051008D02*
X0126160Y0051008D01*
X0126160Y0052479D02*
X0126160Y0046391D01*
X0126160Y0046391D01*
X0126160Y0052479D01*
X0130153Y0051008D02*
X0130486Y0051008D01*
X0126160Y0047809D02*
X0126160Y0047809D01*
X0136160Y0046391D02*
X0136160Y0055091D01*
X0136027Y0055225D01*
X0141567Y0051008D02*
X0186894Y0051008D01*
X0186892Y0054206D02*
X0171031Y0054206D01*
X0171933Y0057405D02*
X0186891Y0057405D01*
X0186889Y0060603D02*
X0171933Y0060603D01*
X0171206Y0063802D02*
X0186888Y0063802D01*
X0186886Y0067000D02*
X0171121Y0067000D01*
X0171121Y0070199D02*
X0186885Y0070199D01*
X0186883Y0073397D02*
X0170461Y0073397D01*
X0171933Y0076596D02*
X0186882Y0076596D01*
X0186880Y0079794D02*
X0171933Y0079794D01*
X0171682Y0082993D02*
X0186878Y0082993D01*
X0186877Y0086191D02*
X0171403Y0086191D01*
X0174602Y0089390D02*
X0186875Y0089390D01*
X0186874Y0092588D02*
X0180770Y0092588D01*
X0182548Y0095787D02*
X0186872Y0095787D01*
X0186871Y0098985D02*
X0182452Y0098985D01*
X0180538Y0102184D02*
X0186869Y0102184D01*
X0186868Y0105382D02*
X0162246Y0105382D01*
X0162462Y0107011D02*
X0156375Y0107011D01*
X0162462Y0107011D01*
X0162265Y0108581D02*
X0186866Y0108581D01*
X0186864Y0111779D02*
X0175458Y0111779D01*
X0175637Y0111870D02*
X0176412Y0112434D01*
X0177090Y0113111D01*
X0177653Y0113886D01*
X0178088Y0114740D01*
X0178384Y0115651D01*
X0178534Y0116598D01*
X0178534Y0117077D01*
X0178534Y0117556D01*
X0178384Y0118502D01*
X0178088Y0119414D01*
X0177653Y0120267D01*
X0177090Y0121043D01*
X0176412Y0121720D01*
X0175637Y0122283D01*
X0174784Y0122718D01*
X0173872Y0123014D01*
X0172926Y0123164D01*
X0172447Y0123164D01*
X0172447Y0117077D01*
X0178534Y0117077D01*
X0172447Y0117077D01*
X0172447Y0117077D01*
X0172447Y0117077D01*
X0166441Y0117077D01*
X0156374Y0107011D01*
X0156374Y0113098D01*
X0156374Y0107011D01*
X0156374Y0107011D01*
X0156375Y0107011D02*
X0156375Y0107011D01*
X0156374Y0108581D02*
X0156374Y0108581D01*
X0156374Y0105382D02*
X0156374Y0105382D01*
X0156374Y0102184D02*
X0156374Y0102184D01*
X0152661Y0102184D02*
X0150538Y0102184D01*
X0152452Y0098985D02*
X0168936Y0098985D01*
X0167422Y0095787D02*
X0152548Y0095787D01*
X0150770Y0092588D02*
X0164224Y0092588D01*
X0163649Y0085225D02*
X0159942Y0085225D01*
X0166076Y0079091D01*
X0160218Y0078161D02*
X0160218Y0075797D01*
X0160705Y0074621D01*
X0161606Y0073721D01*
X0161895Y0073601D01*
X0161564Y0073271D01*
X0161303Y0072880D01*
X0161123Y0072445D01*
X0161031Y0071984D01*
X0161031Y0069092D01*
X0166076Y0069092D01*
X0166076Y0069091D02*
X0158603Y0069091D01*
X0149896Y0077798D01*
X0149896Y0074033D01*
X0150267Y0074033D01*
X0150995Y0074177D01*
X0151680Y0074461D01*
X0152297Y0074873D01*
X0152821Y0075398D01*
X0153233Y0076015D01*
X0153517Y0076700D01*
X0153662Y0077427D01*
X0153662Y0077798D01*
X0149896Y0077798D01*
X0149896Y0077798D01*
X0153662Y0077798D01*
X0153662Y0078169D01*
X0153517Y0078896D01*
X0153233Y0079582D01*
X0152821Y0080198D01*
X0152594Y0080425D01*
X0157954Y0080425D01*
X0160218Y0078161D01*
X0160218Y0076596D02*
X0153474Y0076596D01*
X0153091Y0079794D02*
X0158585Y0079794D01*
X0159942Y0085225D02*
X0136027Y0085225D01*
X0135832Y0085420D01*
X0135832Y0091902D01*
X0131798Y0095787D02*
X0112370Y0095787D01*
X0112370Y0095771D02*
X0112370Y0100194D01*
X0112144Y0100739D01*
X0112370Y0101283D01*
X0112370Y0105706D01*
X0112307Y0105857D01*
X0112370Y0106008D01*
X0112370Y0110430D01*
X0111883Y0111606D01*
X0111557Y0111932D01*
X0111557Y0112943D01*
X0111246Y0112943D01*
X0111557Y0112943D01*
X0111557Y0113255D01*
X0111883Y0113580D01*
X0112370Y0114756D01*
X0112370Y0119179D01*
X0111883Y0120355D01*
X0110982Y0121255D01*
X0109806Y0121742D01*
X0102234Y0121742D01*
X0101058Y0121255D01*
X0100158Y0120355D01*
X0099671Y0119179D01*
X0099671Y0114756D01*
X0100158Y0113580D01*
X0100483Y0113255D01*
X0100483Y0112943D01*
X0100483Y0111932D01*
X0100158Y0111606D01*
X0099671Y0110430D01*
X0099671Y0106008D01*
X0099733Y0105857D01*
X0099671Y0105706D01*
X0099671Y0101283D01*
X0099896Y0100739D01*
X0099671Y0100194D01*
X0099671Y0097738D01*
X0099435Y0097835D01*
X0098708Y0097980D01*
X0098337Y0097980D01*
X0097966Y0097980D01*
X0097239Y0097835D01*
X0096554Y0097551D01*
X0095937Y0097139D01*
X0095412Y0096615D01*
X0095000Y0095998D01*
X0094716Y0095313D01*
X0094572Y0094585D01*
X0094572Y0094215D01*
X0098337Y0094215D01*
X0098337Y0097980D01*
X0098337Y0094215D01*
X0098337Y0094215D01*
X0098337Y0094215D01*
X0094572Y0094215D01*
X0094572Y0093844D01*
X0094716Y0093116D01*
X0095000Y0092431D01*
X0095412Y0091814D01*
X0095937Y0091290D01*
X0096554Y0090878D01*
X0097239Y0090594D01*
X0097966Y0090449D01*
X0098337Y0090449D01*
X0098337Y0094214D01*
X0098337Y0094214D01*
X0098337Y0090449D01*
X0098708Y0090449D01*
X0099435Y0090594D01*
X0099796Y0090743D01*
X0100158Y0089871D01*
X0100483Y0089545D01*
X0100483Y0088534D01*
X0100795Y0088534D01*
X0100795Y0088534D01*
X0100483Y0088534D01*
X0100483Y0088222D01*
X0100158Y0087897D01*
X0099671Y0086721D01*
X0099671Y0082298D01*
X0100158Y0081122D01*
X0101058Y0080222D01*
X0102234Y0079735D01*
X0109806Y0079735D01*
X0110982Y0080222D01*
X0111883Y0081122D01*
X0112370Y0082298D01*
X0112370Y0086721D01*
X0111883Y0087897D01*
X0111557Y0088222D01*
X0111557Y0088534D01*
X0111557Y0089545D01*
X0111883Y0089871D01*
X0112370Y0091047D01*
X0112370Y0095470D01*
X0112307Y0095620D01*
X0112370Y0095771D01*
X0112370Y0092588D02*
X0130232Y0092588D01*
X0130425Y0089390D02*
X0111557Y0089390D01*
X0111557Y0088534D02*
X0111246Y0088534D01*
X0111246Y0088534D01*
X0111557Y0088534D01*
X0112370Y0086191D02*
X0129127Y0086191D01*
X0129483Y0082993D02*
X0112370Y0082993D01*
X0109950Y0079794D02*
X0115325Y0079794D01*
X0118720Y0079794D02*
X0118720Y0079794D01*
X0118720Y0078151D02*
X0118720Y0078150D01*
X0122485Y0078150D01*
X0122485Y0077780D01*
X0122411Y0077405D01*
X0122416Y0077407D01*
X0131563Y0077407D01*
X0132739Y0076920D01*
X0133503Y0076156D01*
X0134910Y0076156D01*
X0136592Y0075459D01*
X0137880Y0074171D01*
X0138577Y0072488D01*
X0138577Y0070667D01*
X0137880Y0068985D01*
X0137135Y0068239D01*
X0147735Y0068239D01*
X0149353Y0067569D01*
X0153430Y0063491D01*
X0160676Y0063491D01*
X0160705Y0063562D01*
X0161606Y0064462D01*
X0161895Y0064581D01*
X0161564Y0064912D01*
X0161303Y0065303D01*
X0161123Y0065738D01*
X0161031Y0066199D01*
X0161031Y0069091D01*
X0166076Y0069091D01*
X0166076Y0069092D01*
X0161031Y0070199D02*
X0138383Y0070199D01*
X0138201Y0073397D02*
X0161690Y0073397D01*
X0161031Y0067000D02*
X0149922Y0067000D01*
X0153120Y0063802D02*
X0160946Y0063802D01*
X0161121Y0054206D02*
X0142927Y0054206D01*
X0142592Y0057405D02*
X0147072Y0057405D01*
X0143060Y0047809D02*
X0186895Y0047809D01*
X0149896Y0076596D02*
X0149896Y0076596D01*
X0146319Y0076596D02*
X0133063Y0076596D01*
X0131699Y0079794D02*
X0122115Y0079794D01*
X0106535Y0076596D02*
X0098959Y0076596D01*
X0098959Y0073397D02*
X0100238Y0073397D01*
X0094997Y0070847D02*
X0094997Y0069217D01*
X0095806Y0069217D01*
X0094859Y0068270D01*
X0094162Y0066587D01*
X0094162Y0065766D01*
X0093724Y0065766D01*
X0092924Y0065766D01*
X0092924Y0067083D01*
X0093833Y0067991D01*
X0094341Y0069217D01*
X0094996Y0069217D01*
X0094996Y0070846D01*
X0094997Y0070847D01*
X0094996Y0070199D02*
X0094997Y0070199D01*
X0094333Y0067000D02*
X0092924Y0067000D01*
X0093724Y0065766D02*
X0093724Y0059379D01*
X0093724Y0059379D01*
X0093724Y0065766D01*
X0093724Y0063802D02*
X0093724Y0063802D01*
X0093724Y0060603D02*
X0093724Y0060603D01*
X0093724Y0059379D02*
X0093724Y0052992D01*
X0093724Y0059379D01*
X0093724Y0059379D01*
X0093724Y0057405D02*
X0093724Y0057405D01*
X0093724Y0054206D02*
X0093724Y0054206D01*
X0093724Y0052992D02*
X0095259Y0052992D01*
X0095282Y0052996D01*
X0095612Y0052666D01*
X0096788Y0052179D01*
X0100661Y0052179D01*
X0101224Y0052412D01*
X0101788Y0052179D01*
X0105661Y0052179D01*
X0106837Y0052666D01*
X0107699Y0053528D01*
X0107699Y0041030D01*
X0106837Y0041892D01*
X0105661Y0042379D01*
X0101788Y0042379D01*
X0101224Y0042145D01*
X0100661Y0042379D01*
X0097924Y0042379D01*
X0097924Y0042416D01*
X0097285Y0043960D01*
X0096649Y0044596D01*
X0096800Y0044626D01*
X0097485Y0044910D01*
X0098102Y0045322D01*
X0098626Y0045846D01*
X0099038Y0046463D01*
X0099322Y0047148D01*
X0099467Y0047876D01*
X0099467Y0048246D01*
X0095702Y0048246D01*
X0095702Y0048246D01*
X0099467Y0048246D01*
X0099467Y0048617D01*
X0099322Y0049345D01*
X0099038Y0050030D01*
X0098626Y0050647D01*
X0098102Y0051171D01*
X0097485Y0051583D01*
X0096800Y0051867D01*
X0096072Y0052012D01*
X0095702Y0052012D01*
X0095702Y0048247D01*
X0095702Y0048247D01*
X0095702Y0052012D01*
X0095331Y0052012D01*
X0094603Y0051867D01*
X0093918Y0051583D01*
X0093301Y0051171D01*
X0092809Y0050679D01*
X0093234Y0051703D01*
X0093234Y0052992D01*
X0093724Y0052992D01*
X0093138Y0051008D02*
X0092945Y0051008D01*
X0092237Y0049721D02*
X0092081Y0049345D01*
X0091936Y0048617D01*
X0091936Y0048246D01*
X0091936Y0047876D01*
X0092081Y0047148D01*
X0092157Y0046966D01*
X0091635Y0046966D01*
X0090604Y0047393D01*
X0088949Y0047393D01*
X0089876Y0048164D01*
X0091249Y0048733D01*
X0092237Y0049721D01*
X0091936Y0048246D02*
X0095701Y0048246D01*
X0091936Y0048246D01*
X0091949Y0047809D02*
X0089450Y0047809D01*
X0095701Y0048246D02*
X0095701Y0048246D01*
X0095702Y0051008D02*
X0095702Y0051008D01*
X0098265Y0051008D02*
X0107699Y0051008D01*
X0107699Y0047809D02*
X0099454Y0047809D01*
X0096724Y0044611D02*
X0107699Y0044611D01*
X0107699Y0041412D02*
X0107316Y0041412D01*
X0078724Y0059379D02*
X0073724Y0059379D01*
X0073166Y0058821D01*
X0070220Y0058821D01*
X0073948Y0059379D02*
X0077412Y0059379D01*
X0078724Y0059379D01*
X0078724Y0059379D01*
X0073948Y0059379D01*
X0073948Y0059379D01*
X0067892Y0046237D02*
X0067236Y0045965D01*
X0058089Y0045965D01*
X0056913Y0046452D01*
X0056013Y0047353D01*
X0055526Y0048529D01*
X0055526Y0056101D01*
X0056013Y0057277D01*
X0056563Y0057827D01*
X0056013Y0058376D01*
X0055526Y0059552D01*
X0055526Y0067125D01*
X0056013Y0068301D01*
X0056117Y0068405D01*
X0054990Y0068405D01*
X0054839Y0068467D01*
X0054688Y0068405D01*
X0050265Y0068405D01*
X0050115Y0068467D01*
X0049964Y0068405D01*
X0045541Y0068405D01*
X0044365Y0068892D01*
X0044040Y0069217D01*
X0043028Y0069217D01*
X0043028Y0070846D01*
X0043028Y0070847D01*
X0043028Y0069217D01*
X0041218Y0069217D01*
X0040757Y0069309D01*
X0040322Y0069489D01*
X0039931Y0069750D01*
X0039599Y0070083D01*
X0039338Y0070474D01*
X0039158Y0070908D01*
X0039066Y0071370D01*
X0039066Y0073870D01*
X0038784Y0073870D01*
X0038784Y0077635D01*
X0038784Y0077635D01*
X0038784Y0073870D01*
X0038413Y0073870D01*
X0037686Y0074015D01*
X0037001Y0074298D01*
X0036384Y0074710D01*
X0035859Y0075235D01*
X0035516Y0075748D01*
X0035513Y0074090D01*
X0006028Y0074090D01*
X0006042Y0046132D01*
X0034551Y0045923D01*
X0044106Y0033331D01*
X0043422Y0006287D01*
X0076083Y0006287D01*
X0072430Y0009941D01*
X0068802Y0009941D01*
X0067259Y0010580D01*
X0066077Y0011762D01*
X0063899Y0013939D01*
X0063260Y0015483D01*
X0063260Y0022449D01*
X0063899Y0023993D01*
X0065081Y0025174D01*
X0068451Y0028545D01*
X0069923Y0029154D01*
X0069711Y0029366D01*
X0069224Y0030542D01*
X0069224Y0039815D01*
X0069711Y0040992D01*
X0070612Y0041892D01*
X0071788Y0042379D01*
X0074524Y0042379D01*
X0074524Y0042583D01*
X0075164Y0044127D01*
X0076476Y0045439D01*
X0069594Y0045439D01*
X0068050Y0046079D01*
X0067892Y0046237D01*
X0070132Y0041412D02*
X0037974Y0041412D01*
X0040401Y0038214D02*
X0060790Y0038214D01*
X0060813Y0038237D02*
X0060289Y0037712D01*
X0059877Y0037096D01*
X0059593Y0036410D01*
X0059448Y0035683D01*
X0059448Y0035312D01*
X0059448Y0034941D01*
X0059593Y0034214D01*
X0059877Y0033529D01*
X0060289Y0032912D01*
X0060813Y0032387D01*
X0061430Y0031975D01*
X0062115Y0031691D01*
X0062843Y0031547D01*
X0063214Y0031547D01*
X0063585Y0031547D01*
X0064312Y0031691D01*
X0064997Y0031975D01*
X0065614Y0032387D01*
X0066138Y0032912D01*
X0066550Y0033529D01*
X0066834Y0034214D01*
X0066979Y0034941D01*
X0066979Y0035312D01*
X0063214Y0035312D01*
X0063214Y0035312D01*
X0066979Y0035312D01*
X0066979Y0035683D01*
X0066834Y0036410D01*
X0066550Y0037096D01*
X0066138Y0037712D01*
X0065614Y0038237D01*
X0064997Y0038649D01*
X0064312Y0038933D01*
X0063585Y0039077D01*
X0063214Y0039077D01*
X0063214Y0035312D01*
X0063214Y0031547D01*
X0063214Y0035312D01*
X0063214Y0035312D01*
X0063214Y0035312D01*
X0059448Y0035312D01*
X0063214Y0035312D01*
X0063214Y0035312D01*
X0063214Y0039077D01*
X0062843Y0039077D01*
X0062115Y0038933D01*
X0061430Y0038649D01*
X0060813Y0038237D01*
X0063214Y0038214D02*
X0063214Y0038214D01*
X0065637Y0038214D02*
X0069224Y0038214D01*
X0069224Y0035015D02*
X0066979Y0035015D01*
X0069224Y0031817D02*
X0064614Y0031817D01*
X0063214Y0031817D02*
X0063214Y0031817D01*
X0061813Y0031817D02*
X0044067Y0031817D01*
X0042828Y0035015D02*
X0059448Y0035015D01*
X0063214Y0035015D02*
X0063214Y0035015D01*
X0068629Y0028618D02*
X0043987Y0028618D01*
X0043906Y0025420D02*
X0065326Y0025420D01*
X0063260Y0022221D02*
X0043825Y0022221D01*
X0043744Y0019023D02*
X0063260Y0019023D01*
X0063260Y0015824D02*
X0043663Y0015824D01*
X0043583Y0012626D02*
X0065213Y0012626D01*
X0072944Y0009427D02*
X0043502Y0009427D01*
X0035547Y0044611D02*
X0075647Y0044611D01*
X0056141Y0057405D02*
X0006036Y0057405D01*
X0006035Y0060603D02*
X0055526Y0060603D01*
X0055526Y0063802D02*
X0006033Y0063802D01*
X0006031Y0067000D02*
X0055526Y0067000D01*
X0043028Y0070199D02*
X0043028Y0070199D01*
X0039521Y0070199D02*
X0006030Y0070199D01*
X0006028Y0073397D02*
X0039066Y0073397D01*
X0041228Y0074754D02*
X0041228Y0074754D01*
X0042978Y0074754D01*
X0042978Y0074754D01*
X0041228Y0074754D01*
X0041665Y0074754D02*
X0038784Y0077635D01*
X0038784Y0081401D01*
X0038784Y0077635D01*
X0038784Y0077635D01*
X0038784Y0076596D02*
X0038784Y0076596D01*
X0041665Y0074754D02*
X0043028Y0074754D01*
X0043078Y0074804D01*
X0043078Y0079188D01*
X0053366Y0089476D01*
X0065619Y0089476D01*
X0065619Y0106722D01*
X0074390Y0115493D01*
X0074390Y0115493D01*
X0074390Y0111728D01*
X0074019Y0111728D01*
X0073292Y0111872D01*
X0072606Y0112156D01*
X0071990Y0112568D01*
X0071465Y0113093D01*
X0071053Y0113710D01*
X0070769Y0114395D01*
X0070625Y0115122D01*
X0070625Y0115493D01*
X0074390Y0115493D01*
X0074390Y0115493D01*
X0074390Y0111728D01*
X0074761Y0111728D01*
X0075488Y0111872D01*
X0076174Y0112156D01*
X0076790Y0112568D01*
X0077315Y0113093D01*
X0077727Y0113710D01*
X0078011Y0114395D01*
X0078155Y0115122D01*
X0078155Y0115493D01*
X0074390Y0115493D01*
X0074390Y0115493D01*
X0070625Y0115493D01*
X0070625Y0115864D01*
X0070769Y0116591D01*
X0071053Y0117277D01*
X0071465Y0117893D01*
X0071990Y0118418D01*
X0072606Y0118830D01*
X0073292Y0119114D01*
X0074019Y0119258D01*
X0074390Y0119258D01*
X0074390Y0115493D01*
X0078155Y0115493D01*
X0078155Y0115864D01*
X0078011Y0116591D01*
X0077727Y0117277D01*
X0077315Y0117893D01*
X0076790Y0118418D01*
X0076174Y0118830D01*
X0075488Y0119114D01*
X0074761Y0119258D01*
X0074390Y0119258D01*
X0074390Y0115493D01*
X0074390Y0115493D01*
X0074390Y0114978D02*
X0074390Y0114978D01*
X0074390Y0118176D02*
X0074390Y0118176D01*
X0073888Y0120373D02*
X0078310Y0120373D01*
X0078461Y0120436D01*
X0078612Y0120373D01*
X0083035Y0120373D01*
X0083185Y0120436D01*
X0083336Y0120373D01*
X0083804Y0120373D01*
X0083574Y0120144D01*
X0082877Y0118461D01*
X0082877Y0116640D01*
X0083574Y0114957D01*
X0084862Y0113670D01*
X0086545Y0112973D01*
X0088366Y0112973D01*
X0090048Y0113670D01*
X0091336Y0114957D01*
X0091714Y0115870D01*
X0092100Y0116255D01*
X0093482Y0115683D01*
X0095303Y0115683D01*
X0096986Y0116380D01*
X0098274Y0117667D01*
X0098452Y0118097D01*
X0098727Y0118372D01*
X0099396Y0119989D01*
X0099396Y0122032D01*
X0099771Y0122937D01*
X0099771Y0130509D01*
X0099284Y0131685D01*
X0098384Y0132585D01*
X0097208Y0133072D01*
X0096876Y0133072D01*
X0099360Y0135557D01*
X0099360Y0140941D01*
X0097052Y0143249D01*
X0099360Y0145557D01*
X0099360Y0150941D01*
X0095552Y0154749D01*
X0090168Y0154749D01*
X0086360Y0150941D01*
X0086360Y0145557D01*
X0088668Y0143249D01*
X0086360Y0140941D01*
X0086360Y0135557D01*
X0088844Y0133072D01*
X0088061Y0133072D01*
X0087910Y0133010D01*
X0087759Y0133072D01*
X0083336Y0133072D01*
X0083185Y0133010D01*
X0083035Y0133072D01*
X0078612Y0133072D01*
X0078461Y0133010D01*
X0078310Y0133072D01*
X0073888Y0133072D01*
X0073737Y0133010D01*
X0073586Y0133072D01*
X0071050Y0133072D01*
X0071050Y0134685D01*
X0071873Y0135508D01*
X0071873Y0140893D01*
X0069566Y0143201D01*
X0071873Y0145508D01*
X0071873Y0150893D01*
X0068066Y0154701D01*
X0062681Y0154701D01*
X0058873Y0150893D01*
X0058873Y0145508D01*
X0061181Y0143201D01*
X0058873Y0140893D01*
X0058873Y0138813D01*
X0057977Y0139709D01*
X0056740Y0140947D01*
X0055122Y0141617D01*
X0048705Y0141617D01*
X0047357Y0142965D01*
X0049664Y0145272D01*
X0049664Y0150657D01*
X0045857Y0154465D01*
X0040472Y0154465D01*
X0036664Y0150657D01*
X0036664Y0145272D01*
X0038972Y0142965D01*
X0036664Y0140657D01*
X0036664Y0135272D01*
X0039496Y0132441D01*
X0038740Y0131685D01*
X0038253Y0130509D01*
X0038253Y0122937D01*
X0038740Y0121761D01*
X0039641Y0120860D01*
X0040817Y0120373D01*
X0045239Y0120373D01*
X0045390Y0120436D01*
X0045541Y0120373D01*
X0049964Y0120373D01*
X0050115Y0120436D01*
X0050265Y0120373D01*
X0054688Y0120373D01*
X0054839Y0120436D01*
X0054990Y0120373D01*
X0059413Y0120373D01*
X0059563Y0120436D01*
X0059714Y0120373D01*
X0064137Y0120373D01*
X0064288Y0120436D01*
X0064439Y0120373D01*
X0068861Y0120373D01*
X0069012Y0120436D01*
X0069163Y0120373D01*
X0073586Y0120373D01*
X0073737Y0120436D01*
X0073888Y0120373D01*
X0071748Y0118176D02*
X0035609Y0118176D01*
X0035602Y0114978D02*
X0070653Y0114978D01*
X0073760Y0111779D02*
X0035595Y0111779D01*
X0035588Y0108581D02*
X0099671Y0108581D01*
X0099671Y0105382D02*
X0093851Y0105382D01*
X0096001Y0102184D02*
X0099671Y0102184D01*
X0099671Y0098985D02*
X0095365Y0098985D01*
X0094913Y0095787D02*
X0094422Y0095787D01*
X0094422Y0092588D02*
X0094935Y0092588D01*
X0094422Y0089390D02*
X0100483Y0089390D01*
X0099671Y0086191D02*
X0094422Y0086191D01*
X0094422Y0082993D02*
X0099671Y0082993D01*
X0098039Y0079794D02*
X0102090Y0079794D01*
X0094997Y0079794D02*
X0094996Y0079794D01*
X0086022Y0082993D02*
X0035532Y0082993D01*
X0035539Y0086191D02*
X0066540Y0086191D01*
X0066618Y0086140D02*
X0067303Y0085856D01*
X0068030Y0085711D01*
X0068401Y0085711D01*
X0068401Y0089476D01*
X0068401Y0089476D01*
X0068401Y0085711D01*
X0068772Y0085711D01*
X0069499Y0085856D01*
X0070185Y0086140D01*
X0070801Y0086552D01*
X0071326Y0087076D01*
X0071738Y0087693D01*
X0072022Y0088378D01*
X0072166Y0089106D01*
X0072166Y0089476D01*
X0068401Y0089476D01*
X0064636Y0089476D01*
X0064636Y0089106D01*
X0064780Y0088378D01*
X0065064Y0087693D01*
X0065476Y0087076D01*
X0066001Y0086552D01*
X0066618Y0086140D01*
X0068401Y0086191D02*
X0068401Y0086191D01*
X0070262Y0086191D02*
X0086022Y0086191D01*
X0086022Y0089390D02*
X0072166Y0089390D01*
X0072166Y0089477D02*
X0072166Y0089847D01*
X0072022Y0090575D01*
X0071738Y0091260D01*
X0071326Y0091877D01*
X0070801Y0092401D01*
X0070185Y0092813D01*
X0069499Y0093097D01*
X0068772Y0093242D01*
X0068401Y0093242D01*
X0068030Y0093242D01*
X0067303Y0093097D01*
X0066618Y0092813D01*
X0066001Y0092401D01*
X0065476Y0091877D01*
X0065064Y0091260D01*
X0064780Y0090575D01*
X0064636Y0089847D01*
X0064636Y0089477D01*
X0068401Y0089477D01*
X0068401Y0093242D01*
X0068401Y0089477D01*
X0068401Y0089477D01*
X0068401Y0089476D01*
X0068401Y0089477D01*
X0068401Y0089476D02*
X0065619Y0089476D01*
X0064636Y0089390D02*
X0035546Y0089390D01*
X0035553Y0092588D02*
X0066281Y0092588D01*
X0068401Y0092588D02*
X0068401Y0092588D01*
X0070521Y0092588D02*
X0086022Y0092588D01*
X0086022Y0095787D02*
X0035560Y0095787D01*
X0035567Y0098985D02*
X0086022Y0098985D01*
X0086485Y0102184D02*
X0035574Y0102184D01*
X0035581Y0105382D02*
X0088996Y0105382D01*
X0091345Y0114978D02*
X0099671Y0114978D01*
X0100483Y0112943D02*
X0100795Y0112943D01*
X0100483Y0112943D01*
X0100795Y0112943D02*
X0100795Y0112943D01*
X0100331Y0111779D02*
X0075020Y0111779D01*
X0074390Y0111779D02*
X0074390Y0111779D01*
X0078127Y0114978D02*
X0083566Y0114978D01*
X0082877Y0118176D02*
X0077032Y0118176D01*
X0080823Y0126723D02*
X0085548Y0126723D01*
X0087748Y0134169D02*
X0071050Y0134169D01*
X0071873Y0137367D02*
X0086360Y0137367D01*
X0086360Y0140566D02*
X0071873Y0140566D01*
X0070129Y0143764D02*
X0088152Y0143764D01*
X0086360Y0146963D02*
X0071873Y0146963D01*
X0071873Y0150162D02*
X0086360Y0150162D01*
X0088779Y0153360D02*
X0069407Y0153360D01*
X0061340Y0153360D02*
X0046961Y0153360D01*
X0049664Y0150162D02*
X0058873Y0150162D01*
X0058873Y0146963D02*
X0049664Y0146963D01*
X0048156Y0143764D02*
X0060617Y0143764D01*
X0058873Y0140566D02*
X0057120Y0140566D01*
X0057977Y0139709D02*
X0057977Y0139709D01*
X0039367Y0153360D02*
X0005990Y0153360D01*
X0005991Y0150162D02*
X0018943Y0150162D01*
X0018906Y0150107D02*
X0018622Y0149421D01*
X0018478Y0148694D01*
X0018478Y0148323D01*
X0018478Y0147952D01*
X0018622Y0147225D01*
X0018906Y0146539D01*
X0019318Y0145923D01*
X0019843Y0145398D01*
X0020459Y0144986D01*
X0021145Y0144702D01*
X0021872Y0144558D01*
X0022243Y0144558D01*
X0022614Y0144558D01*
X0023341Y0144702D01*
X0024026Y0144986D01*
X0024643Y0145398D01*
X0025168Y0145923D01*
X0025580Y0146539D01*
X0025864Y0147225D01*
X0026008Y0147952D01*
X0026008Y0148323D01*
X0022243Y0148323D01*
X0022243Y0148323D01*
X0022243Y0144558D01*
X0022243Y0148323D01*
X0022243Y0148323D01*
X0026008Y0148323D01*
X0026008Y0148694D01*
X0025864Y0149421D01*
X0025580Y0150107D01*
X0025168Y0150723D01*
X0024643Y0151248D01*
X0024026Y0151660D01*
X0023341Y0151944D01*
X0022614Y0152088D01*
X0022243Y0152088D01*
X0022243Y0148323D01*
X0022243Y0148323D01*
X0018478Y0148323D01*
X0022243Y0148323D01*
X0022243Y0148323D01*
X0022243Y0152088D01*
X0021872Y0152088D01*
X0021145Y0151944D01*
X0020459Y0151660D01*
X0019843Y0151248D01*
X0019318Y0150723D01*
X0018906Y0150107D01*
X0018731Y0146963D02*
X0005993Y0146963D01*
X0005994Y0143764D02*
X0038172Y0143764D01*
X0036664Y0140566D02*
X0005996Y0140566D01*
X0005997Y0137367D02*
X0036664Y0137367D01*
X0037768Y0134169D02*
X0005999Y0134169D01*
X0006001Y0130970D02*
X0038444Y0130970D01*
X0038253Y0127772D02*
X0006002Y0127772D01*
X0022243Y0146963D02*
X0022243Y0146963D01*
X0022243Y0150162D02*
X0022243Y0150162D01*
X0025543Y0150162D02*
X0036664Y0150162D01*
X0036664Y0146963D02*
X0025755Y0146963D01*
X0005988Y0156559D02*
X0102489Y0156559D01*
X0102489Y0158460D02*
X0102489Y0149782D01*
X0103090Y0148330D01*
X0104201Y0147219D01*
X0105653Y0146618D01*
X0110778Y0146618D01*
X0111616Y0146965D01*
X0112229Y0147219D01*
X0112767Y0147757D01*
X0112776Y0147747D01*
X0112776Y0147414D01*
X0113378Y0145962D01*
X0114489Y0144851D01*
X0115941Y0144249D01*
X0118696Y0144249D01*
X0120148Y0144851D01*
X0121259Y0145962D01*
X0122444Y0147146D01*
X0123045Y0148598D01*
X0123045Y0156091D01*
X0122444Y0157543D01*
X0121333Y0158654D01*
X0119881Y0159255D01*
X0118309Y0159255D01*
X0116858Y0158654D01*
X0116726Y0158523D01*
X0116595Y0158654D01*
X0115143Y0159255D01*
X0113572Y0159255D01*
X0112175Y0158677D01*
X0110778Y0159255D01*
X0110059Y0159255D01*
X0109788Y0159912D01*
X0108676Y0161023D01*
X0107225Y0161624D01*
X0105653Y0161624D01*
X0104201Y0161023D01*
X0103090Y0159912D01*
X0102489Y0158460D01*
X0103026Y0159757D02*
X0005987Y0159757D01*
X0035623Y0124573D02*
X0038253Y0124573D01*
X0039126Y0121375D02*
X0035616Y0121375D01*
X0068401Y0089477D02*
X0072166Y0089477D01*
X0068401Y0089390D02*
X0068401Y0089390D01*
X0043028Y0079794D02*
X0043028Y0079794D01*
X0043028Y0078662D02*
X0043028Y0078662D01*
X0038784Y0079794D02*
X0038784Y0079794D01*
X0035698Y0079794D02*
X0035525Y0079794D01*
X0055526Y0054206D02*
X0006038Y0054206D01*
X0006039Y0051008D02*
X0055526Y0051008D01*
X0055824Y0047809D02*
X0006041Y0047809D01*
X0098337Y0092588D02*
X0098337Y0092588D01*
X0098337Y0095787D02*
X0098337Y0095787D01*
X0112370Y0098985D02*
X0130829Y0098985D01*
X0130232Y0102184D02*
X0112370Y0102184D01*
X0112370Y0105382D02*
X0131032Y0105382D01*
X0131032Y0108581D02*
X0112370Y0108581D01*
X0111709Y0111779D02*
X0131182Y0111779D01*
X0133560Y0114978D02*
X0112370Y0114978D01*
X0111246Y0112943D02*
X0111246Y0112943D01*
X0112370Y0118176D02*
X0135547Y0118176D01*
X0142447Y0117077D02*
X0135832Y0110462D01*
X0135832Y0101902D01*
X0140464Y0097270D01*
X0145694Y0097270D01*
X0144974Y0097989D01*
X0144974Y0107011D01*
X0140941Y0107011D01*
X0135832Y0101902D01*
X0149964Y0111779D02*
X0152582Y0111779D01*
X0156374Y0111779D02*
X0156374Y0111779D01*
X0160167Y0111779D02*
X0169435Y0111779D01*
X0169256Y0111870D02*
X0170110Y0111435D01*
X0171021Y0111139D01*
X0171968Y0110990D01*
X0172447Y0110990D01*
X0172926Y0110990D01*
X0173872Y0111139D01*
X0174784Y0111435D01*
X0175637Y0111870D01*
X0172447Y0111779D02*
X0172447Y0111779D01*
X0172447Y0110990D02*
X0172447Y0117077D01*
X0158530Y0130994D01*
X0158530Y0134442D01*
X0158530Y0134169D02*
X0158530Y0134169D01*
X0158530Y0137367D02*
X0158530Y0137367D01*
X0158530Y0140566D02*
X0158530Y0140566D01*
X0162920Y0140566D02*
X0186851Y0140566D01*
X0186849Y0143764D02*
X0097568Y0143764D01*
X0099360Y0140566D02*
X0103113Y0140566D01*
X0102330Y0137367D02*
X0099360Y0137367D01*
X0097972Y0134169D02*
X0102330Y0134169D01*
X0102330Y0130970D02*
X0099580Y0130970D01*
X0099771Y0127772D02*
X0103432Y0127772D01*
X0099771Y0124573D02*
X0126710Y0124573D01*
X0127649Y0121375D02*
X0110694Y0121375D01*
X0101347Y0121375D02*
X0099396Y0121375D01*
X0099671Y0118176D02*
X0098531Y0118176D01*
X0099360Y0146963D02*
X0104820Y0146963D01*
X0102489Y0150162D02*
X0099360Y0150162D01*
X0096941Y0153360D02*
X0102489Y0153360D01*
X0109852Y0159757D02*
X0126783Y0159757D01*
X0126245Y0156559D02*
X0122851Y0156559D01*
X0123045Y0153360D02*
X0126245Y0153360D01*
X0127384Y0150162D02*
X0123045Y0150162D01*
X0122261Y0146963D02*
X0130945Y0146963D01*
X0134183Y0146963D02*
X0136495Y0146963D01*
X0142101Y0146963D02*
X0142959Y0146963D01*
X0149749Y0146963D02*
X0150878Y0146963D01*
X0153947Y0140566D02*
X0154140Y0140566D01*
X0163917Y0137367D02*
X0186852Y0137367D01*
X0186854Y0134169D02*
X0163917Y0134169D01*
X0163909Y0130970D02*
X0186855Y0130970D01*
X0186857Y0127772D02*
X0162478Y0127772D01*
X0158530Y0127772D02*
X0158530Y0127772D01*
X0158530Y0130970D02*
X0158530Y0130970D01*
X0154581Y0127772D02*
X0153627Y0127772D01*
X0149356Y0124573D02*
X0186858Y0124573D01*
X0186860Y0121375D02*
X0176758Y0121375D01*
X0178436Y0118176D02*
X0186861Y0118176D01*
X0186863Y0114978D02*
X0178165Y0114978D01*
X0172447Y0114978D02*
X0172447Y0114978D01*
X0172447Y0117077D02*
X0172447Y0117077D01*
X0172447Y0123164D01*
X0171968Y0123164D01*
X0171021Y0123014D01*
X0170110Y0122718D01*
X0169256Y0122283D01*
X0168481Y0121720D01*
X0167804Y0121043D01*
X0167240Y0120267D01*
X0166805Y0119414D01*
X0166509Y0118502D01*
X0166359Y0117556D01*
X0166359Y0117077D01*
X0172447Y0117077D01*
X0172447Y0117077D01*
X0172447Y0110990D01*
X0169256Y0111870D02*
X0168481Y0112434D01*
X0167804Y0113111D01*
X0167240Y0113886D01*
X0166805Y0114740D01*
X0166509Y0115651D01*
X0166359Y0116598D01*
X0166359Y0117077D01*
X0172447Y0117077D01*
X0172447Y0118176D02*
X0172447Y0118176D01*
X0172447Y0121375D02*
X0172447Y0121375D01*
X0168136Y0121375D02*
X0147907Y0121375D01*
X0149347Y0118176D02*
X0166458Y0118176D01*
X0166728Y0114978D02*
X0149046Y0114978D01*
X0160087Y0102184D02*
X0170849Y0102184D01*
X0175694Y0097270D02*
X0163649Y0085225D01*
X0146701Y0079794D02*
X0140354Y0079794D01*
X0112963Y0146963D02*
X0111611Y0146963D01*
X0142711Y0159757D02*
X0152637Y0159757D01*
X0177516Y0159757D02*
X0186841Y0159757D01*
X0186843Y0156559D02*
X0185017Y0156559D01*
X0184730Y0153360D02*
X0186844Y0153360D01*
X0186846Y0150162D02*
X0181658Y0150162D01*
X0179326Y0146963D02*
X0186847Y0146963D01*
D25*
X0106020Y0112943D02*
X0101427Y0112943D01*
X0098337Y0109853D01*
X0098337Y0094215D01*
X0091423Y0101433D02*
X0090222Y0100232D01*
X0090222Y0074804D01*
X0090272Y0074754D01*
X0090272Y0070370D01*
X0088724Y0068822D01*
X0088724Y0059379D01*
X0093724Y0059379D02*
X0093724Y0050224D01*
X0095702Y0048246D01*
X0092539Y0042766D02*
X0089742Y0042766D01*
X0089693Y0042815D01*
X0092539Y0042766D02*
X0093724Y0041581D01*
X0093724Y0035179D01*
X0093724Y0029650D01*
X0097235Y0026140D01*
X0107563Y0026140D01*
X0110699Y0023003D01*
X0117621Y0019241D02*
X0117621Y0032067D01*
X0121945Y0036391D01*
X0126160Y0036391D01*
X0136160Y0036391D02*
X0142224Y0036391D01*
X0147016Y0031600D01*
X0147016Y0013199D01*
X0142199Y0008383D01*
X0079928Y0008383D01*
X0074170Y0014141D01*
X0069638Y0014141D01*
X0067460Y0016318D01*
X0067460Y0021614D01*
X0070830Y0024984D01*
X0074322Y0024984D01*
X0078724Y0029387D01*
X0078724Y0035179D01*
X0078724Y0041748D01*
X0080971Y0043994D01*
X0085084Y0049639D02*
X0088656Y0052614D01*
X0085084Y0049639D02*
X0070430Y0049639D01*
X0067754Y0052315D01*
X0062663Y0052315D01*
X0062663Y0063338D02*
X0066139Y0066814D01*
X0083779Y0066814D01*
X0083779Y0059434D01*
X0088724Y0035179D02*
X0088724Y0022558D01*
X0091035Y0020248D01*
X0089452Y0013196D02*
X0083656Y0018993D01*
X0083656Y0035111D01*
X0083656Y0018993D02*
X0083654Y0018944D01*
X0083648Y0018895D01*
X0083639Y0018847D01*
X0083625Y0018800D01*
X0083608Y0018754D01*
X0083588Y0018709D01*
X0083564Y0018666D01*
X0083537Y0018626D01*
X0083506Y0018587D01*
X0083473Y0018551D01*
X0083437Y0018518D01*
X0083398Y0018487D01*
X0083358Y0018460D01*
X0083315Y0018436D01*
X0083270Y0018416D01*
X0083224Y0018399D01*
X0083177Y0018385D01*
X0083129Y0018376D01*
X0083080Y0018370D01*
X0083031Y0018368D01*
X0078754Y0018368D01*
X0089452Y0013196D02*
X0111576Y0013196D01*
X0117621Y0019241D01*
X0126160Y0046391D02*
X0123303Y0049248D01*
X0117835Y0049248D01*
X0119836Y0060034D02*
X0119806Y0060063D01*
X0112638Y0060063D01*
X0112606Y0060096D01*
X0112099Y0060096D01*
X0125429Y0071578D02*
X0126990Y0071057D01*
X0125429Y0071578D02*
X0133999Y0071578D01*
X0087455Y0117551D02*
X0090272Y0120367D01*
X0090272Y0126723D01*
X0052477Y0131950D02*
X0052379Y0132987D01*
M02*
